<?xml version="1.0" encoding="UTF-8"?>
<!DOCTYPE svg PUBLIC "-//W3C//DTD SVG 1.1//EN" "http://www.w3.org/Graphics/SVG/1.1/DTD/svg11.dtd">
<!-- Creator: CorelDRAW -->
<svg xmlns="http://www.w3.org/2000/svg" xml:space="preserve" width="50px" height="50px" style="shape-rendering:geometricPrecision; text-rendering:geometricPrecision; image-rendering:optimizeQuality; fill-rule:evenodd; clip-rule:evenodd"
viewBox="0 0 50 50"
 xmlns:xlink="http://www.w3.org/1999/xlink">
 <defs>
  <style type="text/css">
   <![CDATA[
    .str6 {stroke:#00923F;stroke-width:0.900028}
    .str1 {stroke:#0093DD;stroke-width:0.900028}
    .str7 {stroke:#1F1A17;stroke-width:0.900028}
    .str0 {stroke:#75C5F0;stroke-width:0.900028}
    .str2 {stroke:#9168A1;stroke-width:0.900028}
    .str4 {stroke:#E77817;stroke-width:0.900028}
    .str5 {stroke:#EF9BA0;stroke-width:0.900028}
    .str3 {stroke:#FFF974;stroke-width:0.900028}
    .fil6 {fill:#00923F}
    .fil1 {fill:#0093DD}
    .fil7 {fill:#1F1A17}
    .fil0 {fill:#75C5F0}
    .fil2 {fill:#9168A1}
    .fil4 {fill:#E77817}
    .fil5 {fill:#EF9BA0}
    .fil3 {fill:#FFF974}
   ]]>
  </style>
 </defs>
 <g id="图层_x0020_1">
  <metadata id="CorelCorpID_0Corel-Layer"/>
  <polygon class="fil0 str0" points="25.0012,-0.170084 35.2263,4.78243 45.4526,9.73259 47.9767,20.8589 50.502,31.9853 43.427,40.9088 36.3508,49.8311 25.0012,49.8311 13.6516,49.8311 6.5754,40.9088 -0.499622,31.9853 2.02565,20.8589 4.54975,9.73259 14.7761,4.78243 "/>
  <g id="_114298496">
   <g>
    <path id="_113118928" class="fil1 str1" d="M10.5263 11.5386c3.45247,-1.37012 7.86048,1.56737 9.84125,6.56005 0.603562,1.52013 0.907115,3.0497 0.948455,4.48833 -1.75872,-3.83752 -5.13087,-6.15374 -8.27743,-5.38127 -2.66465,0.655532 -4.44581,3.34971 -4.79543,6.72423 -0.133469,-0.282292 -0.262213,-0.57049 -0.380327,-0.868138 -1.14571,-2.88671 -1.22957,-5.83365 -0.428754,-8.06718 0.729944,-0.00472456 1.48587,-0.329538 2.04573,-0.95318 0.617736,-0.688604 0.852783,-1.5721 0.706321,-2.35283 0.111027,-0.0555136 0.223235,-0.10394 0.340168,-0.150005z"/>
    <ellipse id="_113460232" class="fil1" transform="matrix(0.0032153 -0.621574 0.694257 -0.00291054 6.98959 11.8291)" rx="3.84815" ry="3.43003"/>
   </g>
   <g>
    <path id="_113118640" class="fil2 str2" d="M27.2324 5.70609c3.21861,1.85439 3.65445,7.13408 0.972078,11.7878 -0.816167,1.41619 -1.82722,2.60559 -2.92923,3.53161 1.91463,-3.76311 1.63588,-7.84513 -0.923651,-9.82944 -2.16857,-1.68194 -5.38718,-1.40437 -8.2479,0.418123 0.137012,-0.27993 0.283473,-0.55986 0.442927,-0.837428 1.55084,-2.69182 3.80799,-4.58755 6.05688,-5.3482 0.457101,0.569309 1.18114,0.960266 2.01739,1.01106 0.92247,0.0578758 1.76108,-0.305915 2.28196,-0.907115 0.113389,0.0531513 0.220873,0.111027 0.329538,0.173628z"/>
    <ellipse id="_113118904" class="fil2" transform="matrix(0.489121 -0.383569 0.433517 0.542277 24.8076 3.115)" rx="3.84815" ry="3.43003"/>
   </g>
   <g>
    <ellipse id="_113459968" class="fil3" transform="matrix(0.60492 0.142957 -0.153338 0.677118 42.6547 11.6041)" rx="3.84815" ry="3.43003"/>
    <path id="_113119600" class="fil3 str3" d="M42.1431 15.115c0.557498,3.67334 -3.29656,7.30653 -8.60578,8.11443 -1.61698,0.245677 -3.17608,0.19725 -4.58755,-0.0862232 4.13517,-0.85042 7.15062,-3.61547 7.10455,-6.85415 -0.0377965,-2.74497 -2.26306,-5.08599 -5.47222,-6.18563 0.304734,-0.067325 0.615374,-0.127563 0.930738,-0.174809 3.07096,-0.467731 5.96121,0.113389 7.95852,1.39611 -0.159454,0.712227 -0.0141737,1.52249 0.467731,2.20755 0.531513,0.75711 1.33941,1.18586 2.13314,1.21775 0.0295285,0.121657 0.0519701,0.240952 0.0708684,0.364972z"/>
   </g>
   <g>
    <path id="_113118448" class="fil4 str4" d="M44.0908 32.6384c-2.52173,2.72725 -7.76599,1.98313 -11.7098,-1.66304 -1.20122,-1.11027 -2.1355,-2.35874 -2.79458,-3.63909 3.24459,2.70009 7.28645,3.33318 9.78928,1.27681 2.12133,-1.74218 2.56189,-4.94189 1.41973,-8.13569 0.243315,0.196069 0.483086,0.400406 0.718133,0.617736 2.28078,2.10833 3.62964,4.72928 3.87296,7.09038 -0.655532,0.320089 -1.19768,0.939006 -1.43272,1.74336 -0.259851,0.887036 -0.0909477,1.78588 0.379146,2.42724 -0.0767741,0.0980346 -0.157092,0.190163 -0.242134,0.282292z"/>
    <ellipse id="_113460184" class="fil4" transform="matrix(0.265674 0.561945 -0.624846 0.302603 47.1546 30.8481)" rx="3.84815" ry="3.43003"/>
   </g>
   <g>
    <path id="_113119624" class="fil5 str5" d="M31.612 45.0935c-3.70523,-0.2693 -6.39469,-4.83322 -6.00609,-10.1897 0.119295,-1.63115 0.511433,-3.14065 1.10082,-4.45408 -0.0862232,4.22021 1.94061,7.77426 5.10961,8.44751 2.68473,0.57049 5.46041,-1.08074 7.24393,-3.96627 -0.00236228,0.311821 -0.0118114,0.627185 -0.0354342,0.946093 -0.224417,3.09813 -1.43154,5.78758 -3.1253,7.45063 -0.659076,-0.313002 -1.47997,-0.349617 -2.25598,-0.0318908 -0.855145,0.350798 -1.4528,1.04295 -1.6595,1.81069 -0.125201,0.00118114 -0.246858,-0.00354342 -0.372059,-0.0129925z"/>
    <ellipse id="_113118808" class="fil5" transform="matrix(-0.273423 0.558215 -0.626319 -0.299542 34.9225 46.3709)" rx="3.84815" ry="3.43003"/>
   </g>
   <g>
    <path id="_113119672" class="fil6 str6" d="M14.0922 43.1116c-2.10007,-3.06388 -0.212605,-8.01285 4.21667,-11.0507 1.34886,-0.924832 2.77332,-1.56029 4.16824,-1.91935 -3.35326,2.56544 -4.86511,6.36752 -3.41467,9.26368 1.22957,2.45441 4.2521,3.59421 7.61953,3.18671 -0.245677,0.193707 -0.498441,0.382689 -0.761835,0.563404 -2.56071,1.75754 -5.41671,2.4922 -7.7719,2.20637 -0.166541,-0.711046 -0.650808,-1.37603 -1.38311,-1.78352 -0.807899,-0.450014 -1.72092,-0.484267 -2.45086,-0.168903 -0.0779552,-0.0956723 -0.151186,-0.194888 -0.222054,-0.297647z"/>
    <ellipse id="_113460040" class="fil6" transform="matrix(-0.60684 0.134573 -0.15665 -0.676359 15.1598 46.4956)" rx="3.84815" ry="3.43003"/>
   </g>
   <g>
    <path id="_111713032" class="fil7 str7" d="M4.71157 28.1832c1.0831,-3.55287 6.13011,-5.16512 11.2669,-3.59893 1.56501,0.47718 2.94931,1.19413 4.09974,2.05991 -4.09619,-1.01932 -8.01049,0.170084 -9.3688,3.11112 -1.15161,2.49102 -0.15591,5.56435 2.26306,7.94198 -0.304734,-0.0708684 -0.610649,-0.150005 -0.915383,-0.243315 -2.97175,-0.905934 -5.32694,-2.67882 -6.57422,-4.69857 0.452376,-0.572853 0.669706,-1.36658 0.531513,-2.19338 -0.151186,-0.91184 -0.695691,-1.64651 -1.39729,-2.01975 0.0259851,-0.121657 0.0578758,-0.23859 0.0944912,-0.359066z"/>
    <ellipse id="_113878416" class="fil7" transform="matrix(-0.483767 -0.3903 0.430858 -0.544392 2.73277 31.1284)" rx="3.84815" ry="3.43003"/>
   </g>
  </g>
 </g>
</svg>
